HIERARCHY
ROOT Hips
{
	OFFSET 0.00000 0.00000 0.00000
	CHANNELS 6 Xposition Yposition Zposition Zrotation Yrotation Xrotation 
	JOINT LHipJoint
	{
		OFFSET 0 0 0
		CHANNELS 3 Zrotation Yrotation Xrotation
		JOINT LeftHip
		{
			OFFSET 1.61024 -1.73873 0.75100
			CHANNELS 3 Zrotation Yrotation Xrotation
			JOINT LeftKnee
			{
				OFFSET 2.29819 -6.31424 0.00000
				CHANNELS 3 Zrotation Yrotation Xrotation
				JOINT LeftAnkle
				{
					OFFSET 2.76618 -7.60002 0.00000
					CHANNELS 3 Zrotation Yrotation Xrotation
					JOINT LeftToe
					{
						OFFSET 0.16838 -0.46263 2.02361
						CHANNELS 3 Zrotation Yrotation Xrotation
						End Site
						{
							OFFSET 0.00000 -0.00000 1.04662
						}
					}
				}
			}
		}
	}
	JOINT RHipJoint
	{
		OFFSET 0 0 0
		CHANNELS 3 Zrotation Yrotation Xrotation
		JOINT RightHip
		{
			OFFSET -1.46153 -1.73873 0.75100
			CHANNELS 3 Zrotation Yrotation Xrotation
			JOINT RightKnee
			{
				OFFSET -2.38373 -6.54924 0.00000
				CHANNELS 3 Zrotation Yrotation Xrotation
				JOINT RightAnkle
				{
					OFFSET -2.80314 -7.70157 0.00000
					CHANNELS 3 Zrotation Yrotation Xrotation
					JOINT RightToe
					{
						OFFSET -0.16142 -0.44349 2.02101
						CHANNELS 3 Zrotation Yrotation Xrotation
						End Site
						{
							OFFSET -0.00000 -0.00000 1.04381
						}
					}
				}
			}
		}
	}
	JOINT lowerback
	{
		OFFSET 0 0 0
		CHANNELS 3 Zrotation Yrotation Xrotation
		JOINT Chest
		{
			OFFSET -0.01629 1.66985 0.14750
			CHANNELS 3 Zrotation Yrotation Xrotation
			JOINT Chest2
			{
				OFFSET 0.02086 1.62378 0.20980
				CHANNELS 3 Zrotation Yrotation Xrotation
				JOINT lowerneck
				{
					OFFSET 0 0 0
					CHANNELS 3 Zrotation Yrotation Xrotation
					JOINT Neck
					{
						OFFSET -0.05690 1.78719 0.08702
						CHANNELS 3 Zrotation Yrotation Xrotation
						JOINT Head
						{
							OFFSET 0.16035 1.73871 -0.38470
							CHANNELS 3 Zrotation Yrotation Xrotation
							End Site
							{
								OFFSET 0.05645 1.80914 -0.14081
							}
						}
					}
				}
				JOINT LeftCollar
				{
					OFFSET 0 0 0
					CHANNELS 3 Zrotation Yrotation Xrotation
					JOINT LeftShoulder
					{
						OFFSET 2.83089 1.66494 -0.46008
CHANNELS 3 Zrotation Xrotation Yrotation
						JOINT LeftElbow
						{
OFFSET 0 -5.548930 -0.000000
CHANNELS 3 Zrotation Xrotation Yrotation
							JOINT LeftWrist
							{
OFFSET 0 -3.028980 -0.000000
CHANNELS 3 Zrotation Xrotation Yrotation
								JOINT lhand
								{
									OFFSET 0 0 0
CHANNELS 3 Zrotation Xrotation Yrotation
									JOINT LFingers
									{
OFFSET 0 -0.640950 -0.000000
CHANNELS 3 Zrotation Xrotation Yrotation
										End Site
										{
OFFSET 0 -0.516750 -0.000000
										}
									}
								}
								JOINT LThumb
								{
OFFSET 0 0.000000 0.000000
CHANNELS 3 Zrotation Xrotation Yrotation
									End Site
									{
OFFSET 0 -0.524640 0.524640
									}
								}
							}
						}
					}
				}
				JOINT RightCollar
				{
					OFFSET 0 0 0
					CHANNELS 3 Zrotation Yrotation Xrotation
					JOINT RightShoulder
					{
						OFFSET -2.84442 1.45761 -0.18088
CHANNELS 3 Zrotation Xrotation Yrotation
						JOINT RightElbow
						{
OFFSET 0 -5.351900 -0.000000
CHANNELS 3 Zrotation Xrotation Yrotation
							JOINT RightWrist
							{
OFFSET 0 -3.025310 -0.000000
CHANNELS 3 Zrotation Xrotation Yrotation
								JOINT rhand
								{
									OFFSET 0 0 0
CHANNELS 3 Zrotation Xrotation Yrotation
									JOINT RFingers
									{
OFFSET 0 -0.783890 -0.000000
CHANNELS 3 Zrotation Xrotation Yrotation
										End Site
										{
OFFSET 0 -0.631990 -0.000000
										}
									}
								}
								JOINT RThumb
								{
OFFSET 0 0.000000 0.000000
CHANNELS 3 Zrotation Xrotation Yrotation
									End Site
									{
OFFSET 0 -0.641640 0.641640
									}
								}
							}
						}
					}
				}
			}
		}
	}
}
MOTION
Frames: 5
Frame Time: 0.008333333333333333
0.344970 17.819482 0.508494 -53.151966 88.045770 -35.548863 0.000000 0.000000 0.000000 0.000000 0.000000 0.000000 0.000000 0.000000 0.000000 0.000000 0.000000 0.000000 0.000000 0.000000 0.000000 0.000000 0.000000 0.000000 17.280751 17.051420 -10.176163 -0.443908 -4.274979 11.851636 -0.023567 -13.284826 -19.165729 -0.935183 6.159890 -17.249129 -0.962304 -1.953905 -10.373924 1.780876 -1.859217 -11.183491 2.283726 -0.520617 -5.858868 -5.406288 -2.922401 -12.999421 8.473222 -4.637704 24.505604 3.372165 -1.500629 10.284797 0.000000 0.000000 0.000000 -0.313546 13.825966 22.554088 8.782314 -14.810036 1.146531 -0.802231 -22.156347 -16.588687 0.000000 0.000000 0.000000 -7.125000 0.000000 0.000000 -26.228366 44.806865 -0.141426 0.000000 0.000000 0.000000 -4.094441 16.626916 6.645208 -8.909637 -15.014667 -1.178205 -14.294372 -17.064119 -17.541468 0.000000 0.000000 0.000000 7.125000 0.000000 0.000000 9.003922 12.080610 7.008804
0.311697 17.822487 0.512722 -52.446721 87.743035 -34.926459 0.000000 0.000000 0.000000 0.000000 0.000000 0.000000 0.000000 0.000000 0.000000 0.000000 0.000000 0.000000 0.000000 0.000000 0.000000 0.000000 0.000000 0.000000 17.496536 17.206148 -10.025654 -0.424038 -4.179260 11.581506 -0.015893 -13.233480 -19.003507 -0.869824 5.946536 -16.629422 -0.747510 -1.769860 -10.163746 1.716837 -1.647753 -11.037092 2.110142 -0.440911 -5.831225 -5.436336 -2.944525 -13.177140 8.724085 -4.708620 24.057143 3.445049 -1.517715 10.170527 0.000000 0.000000 0.000000 0.288073 15.418320 -0.898982 15.096177 -24.275121 3.268169 4.835172 -39.575858 -18.385545 0.000000 0.000000 0.000000 -7.125000 0.000000 0.000000 -22.072338 47.146770 1.224888 0.000000 0.000000 0.000000 -6.073965 18.082247 29.132054 -15.374807 -24.661087 -3.383520 -16.085331 -29.273976 -15.886502 0.000000 0.000000 0.000000 7.125000 0.000000 0.000000 7.781011 13.590332 5.789573
0.260133 17.826206 0.513238 -47.386522 87.779757 -29.917998 0.000000 0.000000 0.000000 0.000000 0.000000 0.000000 0.000000 0.000000 0.000000 0.000000 0.000000 0.000000 0.000000 0.000000 0.000000 0.000000 0.000000 0.000000 17.267935 17.058042 -10.356574 -0.435042 -4.232587 11.732008 -0.028822 -12.969992 -18.793090 -0.927999 6.136738 -17.181630 -0.900119 -1.726582 -10.126425 1.609112 -1.596288 -10.949553 2.084754 -0.414723 -5.756401 -5.501488 -3.007205 -13.000937 8.797617 -4.792881 23.740324 3.463786 -1.566679 10.033034 0.000000 0.000000 0.000000 3.545685 14.164178 -17.177093 23.789932 -34.925226 7.592722 10.686310 -39.053060 -20.255752 0.000000 0.000000 0.000000 -7.125000 0.000000 0.000000 -17.511968 49.738607 2.096684 0.000000 0.000000 0.000000 -9.779537 16.226993 45.378143 -25.575421 -36.759404 -8.643073 -16.530605 -36.631786 -15.638267 0.000000 0.000000 0.000000 7.125000 0.000000 0.000000 7.476768 13.801728 5.525469
0.196953 17.832621 0.512762 -56.495565 87.819715 -39.078704 0.000000 0.000000 0.000000 0.000000 0.000000 0.000000 0.000000 0.000000 0.000000 0.000000 0.000000 0.000000 0.000000 0.000000 0.000000 0.000000 0.000000 0.000000 17.502557 17.032232 -10.317739 -0.412496 -4.122973 11.422711 0.043211 -13.312377 -18.395074 -0.960531 6.240414 -17.483709 -0.636261 -1.769420 -10.180015 1.631501 -1.661122 -10.977481 1.956433 -0.461961 -5.761403 -5.383112 -2.939183 -12.668235 8.770397 -4.720790 23.794248 3.446327 -1.527794 9.977966 0.000000 0.000000 0.000000 8.695820 9.383741 -29.710145 36.445569 -45.811030 15.843193 11.620295 -32.732433 -19.249406 0.000000 0.000000 0.000000 -7.125000 0.000000 0.000000 -16.228235 48.904415 1.601477 0.000000 0.000000 0.000000 -14.440884 10.341282 57.629488 -42.119694 -49.269032 -20.033634 -16.357615 -41.126494 -16.389191 0.000000 0.000000 0.000000 7.125000 0.000000 0.000000 7.610632 13.048761 5.747761
0.148300 17.837311 0.506618 -92.393607 88.486312 -75.319090 0.000000 0.000000 0.000000 0.000000 0.000000 0.000000 0.000000 0.000000 0.000000 0.000000 0.000000 0.000000 0.000000 0.000000 0.000000 0.000000 0.000000 0.000000 17.469779 16.774834 -9.960282 -0.417444 -4.147035 11.490646 0.092520 -14.134391 -19.000070 -0.847692 5.872131 -16.413936 -0.641286 -2.200766 -10.399118 1.544694 -2.230829 -10.966162 1.831263 -0.750302 -5.609499 -5.110587 -2.778534 -12.160714 8.692896 -4.546038 24.128546 3.406092 -1.425200 9.976047 0.000000 0.000000 0.000000 14.996041 0.409885 -38.966884 54.097246 -54.496286 29.485277 9.202003 -23.446427 -17.875993 0.000000 0.000000 0.000000 -7.125000 0.000000 0.000000 -17.921804 47.244589 1.024602 0.000000 0.000000 0.000000 -18.160179 -0.513618 64.786377 -68.233527 -58.099413 -41.273405 -15.604863 -41.981857 -16.314807 0.000000 0.000000 0.000000 7.125000 0.000000 0.000000 8.111183 13.199109 6.107707
